<svg data-v-423bf9ae="" xmlns="http://www.w3.org/2000/svg" viewBox="0 0 564.3245890249639 174" class="iconAbove"><!----><!----><!----><g data-v-423bf9ae="" id="19a85a20-2a3d-41a5-9695-66168d44af13" fill="#12262A" transform="matrix(6.516290187835693,0,0,6.516290187835693,-0.898384153842926,90.07015991210938)"><path d="M3.27 3.60L3.27 3.60L3.27 3.60Q2.65 3.74 2.13 4.17L2.13 4.17L2.13 4.17Q1.61 4.59 1.24 5.07L1.24 5.07L1.24 5.07Q0.88 5.54 0.86 6.29L0.86 6.29L0.86 6.29Q0.84 7.04 1.35 7.59L1.35 7.59L1.35 7.59Q1.85 8.14 3.29 8.56L3.29 8.56L3.29 8.56Q4.72 8.98 5.12 9.73L5.12 9.73L5.12 9.73Q5.52 10.49 5.05 11.05L5.05 11.05L5.05 11.05Q4.57 11.60 3.77 11.64L3.77 11.64L3.77 11.64Q2.96 11.68 2.28 11.15L2.28 11.15L2.28 11.15Q1.59 10.62 1.40 9.95L1.40 9.95L1.40 9.95Q1.21 9.27 1.23 8.95L1.23 8.95L0.17 9.98L0.17 9.98Q0.03 10.52 0.50 11.21L0.50 11.21L0.50 11.21Q0.96 11.91 1.79 12.37L1.79 12.37L1.79 12.37Q2.62 12.84 3.62 12.71L3.62 12.71L3.62 12.71Q4.61 12.59 5.50 11.34L5.50 11.34L5.50 11.34Q6.39 10.09 6.37 9.38L6.37 9.38L6.37 9.38Q6.36 8.66 5.83 8.12L5.83 8.12L5.83 8.12Q5.30 7.58 3.77 7.17L3.77 7.17L3.77 7.17Q2.23 6.76 2.08 5.92L2.08 5.92L2.08 5.92Q1.93 5.08 2.55 4.85L2.55 4.85L2.55 4.85Q3.17 4.61 3.96 4.96L3.96 4.96L3.96 4.96Q4.76 5.30 4.79 5.68L4.79 5.68L5.73 4.92L5.73 4.92Q5.56 4.22 4.72 3.84L4.72 3.84L4.72 3.84Q3.89 3.46 3.27 3.60ZM8.67 3.60L7.36 4.16L7.36 12.74L8.67 12.14L8.67 3.60ZM12.88 6.43L12.88 6.43L12.88 6.43Q11.96 6.36 10.95 6.88L10.95 6.88L10.95 6.88Q9.93 7.40 10.06 8.65L10.06 8.65L11.62 7.95L11.62 7.95Q11.50 7.10 12.25 6.96L12.25 6.96L12.25 6.96Q13.00 6.82 13.41 7.21L13.41 7.21L13.41 7.21Q13.83 7.61 13.77 8.80L13.77 8.80L13.77 8.80Q13.31 8.50 12.69 8.42L12.69 8.42L12.69 8.42Q12.07 8.33 11.06 8.85L11.06 8.85L11.06 8.85Q10.05 9.37 9.80 10.38L9.80 10.38L9.80 10.38Q9.55 11.38 10.33 12.06L10.33 12.06L10.33 12.06Q11.10 12.73 11.83 12.70L11.83 12.70L11.83 12.70Q12.55 12.67 12.91 12.39L12.91 12.39L12.91 12.39Q13.28 12.10 13.79 11.57L13.79 11.57L13.79 11.57Q13.78 12.44 13.99 12.76L13.99 12.76L15.34 12.04L15.34 12.04Q15.00 11.63 15.07 11.02L15.07 11.02L15.07 8.16L15.07 8.16Q15.09 7.49 14.44 6.99L14.44 6.99L14.44 6.99Q13.79 6.50 12.88 6.43ZM13.82 9.32L13.80 9.68L13.80 11.18L13.80 11.18Q12.64 12.11 11.69 11.55L11.69 11.55L11.69 11.55Q10.75 10.99 10.62 10.16L10.62 10.16L10.62 10.16Q10.49 9.34 11.44 9.31L11.44 9.31L11.44 9.31Q12.39 9.28 13.19 10.00L13.19 10.00L13.82 9.32ZM18.83 11.03L16.75 6.44L15.61 7.03L18.05 12.74L19.24 11.98L19.13 11.65L21.08 6.64L20.61 6.47L18.83 11.03ZM24.66 6.51L24.66 6.51L24.66 6.51Q23.58 6.35 22.64 7.19L22.64 7.19L22.64 7.19Q21.70 8.03 21.43 9.15L21.43 9.15L21.43 9.15Q21.17 10.27 21.52 11.09L21.52 11.09L21.52 11.09Q21.87 11.91 22.45 12.28L22.45 12.28L22.45 12.28Q23.03 12.66 23.82 12.71L23.82 12.71L23.82 12.71Q24.62 12.76 25.39 12.08L25.39 12.08L25.39 12.08Q26.15 11.41 26.61 10.54L26.61 10.54L26.52 10.47L26.52 10.47Q25.46 11.57 24.39 11.52L24.39 11.52L24.39 11.52Q23.31 11.47 22.97 10.85L22.97 10.85L24.91 9.78L24.91 9.78Q26.36 8.81 26.05 7.75L26.05 7.75L26.05 7.75Q25.74 6.68 24.66 6.51ZM22.44 8.16L22.44 8.16L22.44 8.16Q22.68 7.66 23.29 7.40L23.29 7.40L23.29 7.40Q23.91 7.14 24.45 7.68L24.45 7.68L24.45 7.68Q25.00 8.21 24.83 8.90L24.83 8.90L24.83 8.90Q24.66 9.60 22.76 10.57L22.76 10.57L22.76 10.57Q22.45 10.04 22.33 9.35L22.33 9.35L22.33 9.35Q22.20 8.67 22.44 8.16ZM33.08 4.44L31.84 4.94L31.84 6.84L31.55 6.84L30.40 7.86L31.83 7.86L31.76 10.19L31.76 10.19Q31.77 11.87 32.65 12.42L32.65 12.42L32.65 12.42Q33.52 12.97 34.42 12.56L34.42 12.56L34.42 12.56Q35.31 12.15 35.63 11.09L35.63 11.09L35.53 10.93L35.53 10.93Q34.64 12.06 33.76 11.64L33.76 11.64L33.76 11.64Q32.89 11.22 33.04 9.78L33.04 9.78L33.09 7.85L33.93 7.85L36.00 6.79L33.07 6.79L33.08 4.44ZM39.43 6.48L39.43 6.48L39.43 6.48Q38.32 6.51 37.61 7.03L37.61 7.03L37.61 7.03Q36.90 7.55 36.58 8.19L36.58 8.19L36.58 8.19Q36.26 8.84 36.23 9.76L36.23 9.76L36.23 9.76Q36.21 10.68 36.90 11.62L36.90 11.62L36.90 11.62Q37.59 12.56 38.60 12.71L38.60 12.71L38.60 12.71Q39.61 12.85 40.47 12.33L40.47 12.33L40.47 12.33Q41.32 11.80 41.76 11.12L41.76 11.12L41.76 11.12Q42.20 10.45 42.22 9.35L42.22 9.35L42.22 9.35Q42.23 8.26 41.39 7.36L41.39 7.36L41.39 7.36Q40.54 6.46 39.43 6.48ZM39.13 7.44L39.13 7.44L39.13 7.44Q40.17 7.82 40.60 8.91L40.60 8.91L40.60 8.91Q41.03 9.99 40.97 10.67L40.97 10.67L40.97 10.67Q40.92 11.34 40.35 11.71L40.35 11.71L40.35 11.71Q39.78 12.08 38.83 11.56L38.83 11.56L38.83 11.56Q37.88 11.05 37.58 9.91L37.58 9.91L37.58 9.91Q37.28 8.77 37.68 7.92L37.68 7.92L37.68 7.92Q38.09 7.07 39.13 7.44ZM49.39 3.60L49.39 3.60L49.39 3.60Q48.77 3.74 48.24 4.17L48.24 4.17L48.24 4.17Q47.72 4.59 47.36 5.07L47.36 5.07L47.36 5.07Q47.00 5.54 46.98 6.29L46.98 6.29L46.98 6.29Q46.96 7.04 47.46 7.59L47.46 7.59L47.46 7.59Q47.97 8.14 49.40 8.56L49.40 8.56L49.40 8.56Q50.84 8.98 51.24 9.73L51.24 9.73L51.24 9.73Q51.64 10.49 51.16 11.05L51.16 11.05L51.16 11.05Q50.69 11.60 49.88 11.64L49.88 11.64L49.88 11.64Q49.08 11.68 48.39 11.15L48.39 11.15L48.39 11.15Q47.71 10.62 47.52 9.95L47.52 9.95L47.52 9.95Q47.33 9.27 47.35 8.95L47.35 8.95L46.29 9.98L46.29 9.98Q46.15 10.52 46.61 11.21L46.61 11.21L46.61 11.21Q47.08 11.91 47.91 12.37L47.91 12.37L47.91 12.37Q48.73 12.84 49.73 12.71L49.73 12.71L49.73 12.71Q50.73 12.59 51.62 11.34L51.62 11.34L51.62 11.34Q52.51 10.09 52.49 9.38L52.49 9.38L52.49 9.38Q52.47 8.66 51.95 8.12L51.95 8.12L51.95 8.12Q51.42 7.58 49.88 7.17L49.88 7.17L49.88 7.17Q48.34 6.76 48.19 5.92L48.19 5.92L48.19 5.92Q48.04 5.08 48.66 4.85L48.66 4.85L48.66 4.85Q49.28 4.61 50.08 4.96L50.08 4.96L50.08 4.96Q50.88 5.30 50.91 5.68L50.91 5.68L51.84 4.92L51.84 4.92Q51.67 4.22 50.84 3.84L50.84 3.84L50.84 3.84Q50.00 3.46 49.39 3.60ZM56.30 6.51L56.30 6.51L56.30 6.51Q55.22 6.35 54.28 7.19L54.28 7.19L54.28 7.19Q53.34 8.03 53.08 9.15L53.08 9.15L53.08 9.15Q52.81 10.27 53.16 11.09L53.16 11.09L53.16 11.09Q53.51 11.91 54.09 12.28L54.09 12.28L54.09 12.28Q54.67 12.66 55.47 12.71L55.47 12.71L55.47 12.71Q56.26 12.76 57.03 12.08L57.03 12.08L57.03 12.08Q57.80 11.41 58.26 10.54L58.26 10.54L58.16 10.47L58.16 10.47Q57.11 11.57 56.03 11.52L56.03 11.52L56.03 11.52Q54.95 11.47 54.61 10.85L54.61 10.85L56.55 9.78L56.55 9.78Q58.00 8.81 57.70 7.75L57.70 7.75L57.70 7.75Q57.39 6.68 56.30 6.51ZM54.09 8.16L54.09 8.16L54.09 8.16Q54.33 7.66 54.94 7.40L54.94 7.40L54.94 7.40Q55.55 7.14 56.10 7.68L56.10 7.68L56.10 7.68Q56.64 8.21 56.48 8.90L56.48 8.90L56.48 8.90Q56.31 9.60 54.40 10.57L54.40 10.57L54.40 10.57Q54.09 10.04 53.97 9.35L53.97 9.35L53.97 9.35Q53.85 8.67 54.09 8.16ZM60.26 6.51L58.99 7.03L58.99 12.73L60.31 12.12L60.31 8.05L60.31 8.05Q60.96 7.22 61.54 7.37L61.54 7.37L61.54 7.37Q62.13 7.53 62.21 8.26L62.21 8.26L63.44 7.46L63.44 7.46Q63.30 6.62 62.29 6.50L62.29 6.50L62.29 6.50Q61.27 6.38 60.25 7.73L60.25 7.73L60.26 6.51ZM66.56 11.03L64.48 6.44L63.34 7.03L65.78 12.74L66.97 11.98L66.86 11.65L68.80 6.64L68.34 6.47L66.56 11.03ZM72.15 6.43L72.15 6.43L72.15 6.43Q71.23 6.36 70.22 6.88L70.22 6.88L70.22 6.88Q69.20 7.40 69.32 8.65L69.32 8.65L70.89 7.95L70.89 7.95Q70.77 7.10 71.52 6.96L71.52 6.96L71.52 6.96Q72.26 6.82 72.68 7.21L72.68 7.21L72.68 7.21Q73.10 7.61 73.04 8.80L73.04 8.80L73.04 8.80Q72.58 8.50 71.96 8.42L71.96 8.42L71.96 8.42Q71.34 8.33 70.33 8.85L70.33 8.85L70.33 8.85Q69.32 9.37 69.07 10.38L69.07 10.38L69.07 10.38Q68.82 11.38 69.59 12.06L69.59 12.06L69.59 12.06Q70.37 12.73 71.09 12.70L71.09 12.70L71.09 12.70Q71.82 12.67 72.18 12.39L72.18 12.39L72.18 12.39Q72.54 12.10 73.06 11.57L73.06 11.57L73.06 11.57Q73.05 12.44 73.25 12.76L73.25 12.76L74.61 12.04L74.61 12.04Q74.27 11.63 74.33 11.02L74.33 11.02L74.33 8.16L74.33 8.16Q74.36 7.49 73.71 6.99L73.71 6.99L73.71 6.99Q73.06 6.50 72.15 6.43ZM73.08 9.32L73.07 9.68L73.07 11.18L73.07 11.18Q71.91 12.11 70.96 11.55L70.96 11.55L70.96 11.55Q70.01 10.99 69.89 10.16L69.89 10.16L69.89 10.16Q69.76 9.34 70.71 9.31L70.71 9.31L70.71 9.31Q71.65 9.28 72.45 10.00L72.45 10.00L73.08 9.32ZM76.69 6.38L75.37 6.89L75.37 12.73L76.75 12.15L76.75 8.05L76.75 8.05Q77.41 7.22 78.39 7.37L78.39 7.37L78.39 7.37Q79.38 7.53 79.34 8.48L79.34 8.48L79.34 12.77L80.68 12.18L80.68 8.25L80.68 8.25Q80.77 7.35 80.11 6.87L80.11 6.87L80.11 6.87Q79.45 6.40 78.49 6.56L78.49 6.56L78.49 6.56Q77.52 6.72 76.68 7.73L76.68 7.73L76.69 6.38ZM83.82 4.44L82.58 4.94L82.58 6.84L82.29 6.84L81.14 7.86L82.58 7.86L82.50 10.19L82.50 10.19Q82.51 11.87 83.39 12.42L83.39 12.42L83.39 12.42Q84.27 12.97 85.16 12.56L85.16 12.56L85.16 12.56Q86.05 12.15 86.37 11.09L86.37 11.09L86.28 10.93L86.28 10.93Q85.38 12.06 84.51 11.64L84.51 11.64L84.51 11.64Q83.63 11.22 83.78 9.78L83.78 9.78L83.83 7.85L84.67 7.85L86.74 6.79L83.82 6.79L83.82 4.44Z"></path></g><defs data-v-423bf9ae=""><linearGradient data-v-423bf9ae="" gradientTransform="rotate(25)" id="910de363-cb8a-4348-b250-a19c702b7d8c" x1="0%" y1="0%" x2="100%" y2="0%"><stop data-v-423bf9ae="" offset="0%" style="stop-color: rgb(32, 72, 79); stop-opacity: 1;"></stop><stop data-v-423bf9ae="" offset="100%" style="stop-color: rgb(78, 155, 171); stop-opacity: 1;"></stop></linearGradient></defs><g data-v-423bf9ae="" id="f89e067a-9d9c-48e1-b53e-43b81444b6cb" transform="matrix(1.0555840730667114,0,0,1.0555840730667114,229.5696258544922,-2.30837345123291)" stroke="none" fill="url(#910de363-cb8a-4348-b250-a19c702b7d8c)"><path d="M45.633 7.687c-.194-2.211 1.586-4.33 3.766-4.625 1.033-.105 2.133-.124 3.089.343 1.645.722 2.756 2.501 2.64 4.303.464.068.938.074 1.395.188 1.658.423 3.01 1.869 3.29 3.562.191 1.217.098 2.535-.551 3.611-.821 1.442-2.49 2.31-4.141 2.216.003 1.839.007 3.676-.001 5.515.592.253 1.217.425 1.804.695 4.401 1.88 7.916 5.784 9.227 10.395 1.851-.037 3.702.008 5.553-.023-.022-1.171.351-2.359 1.149-3.231.882-1.006 2.222-1.589 3.563-1.507 1.315-.093 2.666.402 3.569 1.371.881.875 1.303 2.134 1.272 3.363 2.184-.143 4.285 1.501 4.663 3.654.141 1.168.152 2.436-.447 3.491-.787 1.537-2.505 2.469-4.216 2.41.016.885-.179 1.775-.643 2.536-.662 1.128-1.846 1.921-3.13 2.14-1.288.165-2.688.057-3.778-.714-1.312-.852-2.053-2.416-2.004-3.965-1.851-.032-3.703.014-5.554-.026-1.486 5.216-5.796 9.501-10.992 11.029-.08 1.867-.011 3.745-.033 5.616-.002 9.481.001 18.964-.002 28.447 1.396.021 2.797-.053 4.188.035.885 2.868 1.789 5.731 2.685 8.599.095.29.186.583.232.888a4675.23 4675.23 0 0 0-23.686 0c.005-.354.146-.682.249-1.015.889-2.833 1.765-5.67 2.661-8.497 1.37-.023 2.742-.017 4.113-.002l.049-.369c-.005-11.221 0-22.438-.002-33.658-.645-.264-1.316-.456-1.945-.756-4.222-1.853-7.587-5.569-8.979-9.967-.062-.13-.07-.411-.284-.354-1.788.037-3.577.026-5.364.006.057 1.58-.712 3.181-2.062 4.026-.878.605-1.967.791-3.015.732-1.778.017-3.485-1.146-4.136-2.799-.288-.613-.294-1.295-.391-1.952-1.526.073-3.062-.686-3.909-1.962-.655-.899-.844-2.034-.772-3.124-.065-2.444 2.236-4.636 4.679-4.423.077-.896.196-1.819.7-2.59.696-1.168 1.944-1.988 3.297-2.141 1.025-.067 2.11-.083 3.045.408 1.597.746 2.633 2.494 2.55 4.252.335.086.684.041 1.025.049 1.503 0 3.005-.005 4.507.004.767-2.438 2.053-4.72 3.822-6.569 1.963-2.097 4.494-3.626 7.23-4.487.003-1.681-.007-3.361.003-5.042a1.731 1.731 0 0 0-.053-.496c-2.158.154-4.236-1.489-4.622-3.61-.176-1.204-.154-2.523.482-3.601A4.516 4.516 0 0 1 44.7 7.799c.315-.036.627-.049.933-.112zm3.414 23.814c-2.184.404-4.128 1.87-5.133 3.847a7.214 7.214 0 0 0-.423 5.55c.647 1.996 2.213 3.663 4.157 4.448 1.196.467 2.518.671 3.79.449 2.388-.34 4.543-1.963 5.521-4.168.819-1.74.868-3.818.166-5.607a7.302 7.302 0 0 0-2.721-3.397 7.242 7.242 0 0 0-5.357-1.122z"></path></g><!----></svg>