<?xml version="1.0" encoding="utf-8"?>
<!-- Generator: Adobe Illustrator 26.2.1, SVG Export Plug-In . SVG Version: 6.00 Build 0)  -->
<svg version="1.1" xmlns="http://www.w3.org/2000/svg" xmlns:xlink="http://www.w3.org/1999/xlink" x="0px" y="0px"
	 viewBox="0 0 1728 1296" enable-background="new 0 0 1728 1296" xml:space="preserve">
<g id="Layer_1">
	<g>
		<g>
			<path fill="#FFFFFF" stroke="#21484F" stroke-width="4" stroke-miterlimit="10" d="M729.87,452.74
				c-0.01,0.05-0.09,0.42-0.22,1.08c-0.01,0-0.01,0-0.01,0.01c-2.19,10.32-19.51,92.34-36.78,183.9
				c-24.32,128.92-37.48,218.13-38.07,257.97c0,0.26-0.06,0.51-0.16,0.73c-0.29,0.73-1.01,1.24-1.84,1.24h-0.03
				c-0.89-0.01-1.64-0.6-1.88-1.4c-0.06-0.2-0.09-0.41-0.09-0.63c0.75-50.62,21.15-168.6,38.14-258.66
				c15.91-84.38,32.24-159.72,36.47-179.04c0.67-3.01,1.03-4.66,1.06-4.78c0.23-1.08,0.79-3.02,1.87-2.79
				C729.41,450.6,730.1,451.66,729.87,452.74z"/>
		</g>
		<g>
			<path fill="#FFFFFF" stroke="#21484F" stroke-width="4" stroke-miterlimit="10" d="M1024.62,660.95
				c-18.19-115.07-36.6-188.68-40.97-205.48c-0.61-2.34-0.95-3.58-0.97-3.68c-0.3-1.06-1.39-1.69-2.46-1.39
				c-0.66,0.18-1.15,0.67-1.36,1.27v0.01c-0.13,0.36-0.15,0.77-0.04,1.17c0.21,0.77,21.16,77.83,41.85,208.72
				c19.05,120.5,41.75,312.46,41.87,543.27c-12.67,0.69-86.7,4.62-173.53,6.51h-0.2c-0.97,0.02-1.93,0.04-2.9,0.06
				c-16.14,0.35-32.7,0.62-49.37,0.78c-1.01,0.01-2.03,0.02-3.04,0.03c-74.61,0.67-151.06-0.8-201.73-7.42
				c-2.61-1.53-21.78-13.54-39.03-45.17c-17.09-31.31-35.72-88.78-27.47-184.71c1.17-13.63,4.82-26.75,10.85-38.98
				c10.36-21.05,28.98-44.77,58.81-38.33c1.25,0.39,11.9,3.61,24.66,2.69c1.57-0.12,3.17-0.29,4.78-0.54
				c1.09-0.17,1.84-1.19,1.67-2.28c-0.14-0.89-0.17-1.55-0.78-1.67c-0.14-0.03-0.31-0.03-0.51,0c-3.44,0.53-6.88,0.69-10.12,0.62
				c-1.29-0.02-2.54-0.08-3.75-0.16c-8.42-0.61-14.73-2.47-14.81-2.5l-0.19-0.05c-32.42-7.06-52.35,18.1-63.35,40.45
				c-6.25,12.69-10.03,26.28-11.24,40.41c-8.36,97.17,10.68,155.49,28.12,187.3c19.04,34.73,39.89,46.15,40.76,46.62l0.33,0.17
				l0.36,0.04c43.62,5.74,106.41,7.65,170.71,7.65c127.54,0,261.08-7.52,263.09-7.63l1.88-0.11v-1.89
				C1066.54,974.81,1043.75,781.92,1024.62,660.95z"/>
		</g>
		<g>
			<path fill="#FFFFFF" stroke="#21484F" stroke-width="4" stroke-miterlimit="10" d="M821.57,1017.64
				c-2.64,6.38-9.4,16.18-25.84,16.18c-2.25,0-4.68-0.18-7.3-0.58c-2.23-0.34-4.5-0.67-6.8-1.01c-21.4-3.15-45.64-6.72-64.13-18.75
				c-21.6-14.06-31.02-36.88-28.79-69.79c0.07-1.1,1.02-1.96,2.13-1.86c1.1,0.07,1.93,1.03,1.86,2.13
				c-4.77,70.44,47.51,78.13,89.51,84.31c2.31,0.34,4.59,0.67,6.82,1.01c18.17,2.78,25.72-5.63,28.85-13.17
				c5.16-12.42,1.69-34.8-9.7-43.21c-17.77-13.11-14.87-54.73-14.45-59.77c-4.6-13.02-8.78-13.81-20.93-16.09
				c-6.27-1.17-14.06-2.63-24.59-6.26c-20.19-6.96-50.91-8.37-74.03,4.18c-16.57,9-27.55,23.86-32.64,44.18
				c-0.1,1.06-0.76,9.22,2.03,17.62c3.88,11.7,12.4,18.4,25.32,19.9c1.1,0.13,1.89,1.12,1.76,2.22c-0.13,1.09-1.12,1.89-2.22,1.75
				c-18.25-2.12-25.68-13.53-28.7-22.74c-3.22-9.78-2.2-18.94-2.15-19.33l0.05-0.25c3.94-15.85,11.3-28.58,21.96-38.01
				c1.79-1.59,3.69-3.09,5.67-4.49c2.22-1.57,4.56-3.03,7.01-4.36c25.84-14.03,57.76-11.17,77.24-4.45
				c10.25,3.53,17.89,4.96,24.02,6.11c12.45,2.34,18.7,3.51,24.12,19.11l0.14,0.41l-0.04,0.43c-0.04,0.44-3.91,44.29,12.8,56.62
				C822.5,978.5,827.96,1002.26,821.57,1017.64z"/>
		</g>
		<g>
			<path fill="#FFFFFF" stroke="#21484F" stroke-width="4" stroke-miterlimit="10" d="M836.54,1212.17v0.02l49.37-0.78v-0.01
				L836.54,1212.17z M865.31,261.49l-0.09-3.76h-24.07l-0.03,3.33l-7.59,908.46l-0.03,42.7l3.04-0.05l8.57-950.44h16.21
				l24.59,949.67l2.9-0.05h0.2L865.31,261.49z"/>
			<polygon fill="#FFFFFF" stroke="#21484F" stroke-width="4" stroke-miterlimit="10" points="885.91,1211.4 836.54,1212.17 
				845.11,261.73 861.32,261.73 			"/>
		</g>
		<g>
			<path fill="#FFFFFF" stroke="#21484F" stroke-width="4" stroke-miterlimit="10" d="M796.04,314.29
				c-1.03-2.77-2.41-5.42-4.13-7.92c-6.71-9.81-18.53-17.53-34.73-22.59c-3.54-1.11-7-2-10.21-2.72
				c-10.52-2.34-18.51-2.8-18.95-2.82l-1.3-0.07l-0.59,1.17c-6.89,13.6-17.99,20.34-32.04,28.88c-5.62,3.41-11.51,6.99-17.59,11.28
				c-0.01,0.01-0.01,0.01-0.01,0.01c-3.72,2.62-7.51,5.5-11.36,8.79c-0.02,0.01-0.03,0.02-0.03,0.03
				c-6.64,5.67-13.44,12.51-20.26,21.15c-26.52,33.61-26.8,38.86-23.77,58.12c0.67,4.26,1.43,9.08,1.99,15.26
				c1.18,13.03,10.04,25.35,24.95,34.71c13.58,8.52,30.29,13.25,44.64,13.25c6.17,0,11.91-0.88,16.77-2.71
				c5.39-2.03,10.78-5.47,15.98-10.17c1.42-1.27,2.84-2.65,4.24-4.11c0-0.01,0-0.01,0.01-0.01c5.72-6.02,11.16-13.55,16.06-22.34
				c9.26-16.61,15.74-36.29,17.32-52.66c2.97-30.76,32.29-62.14,32.59-62.45l0.85-0.91L796.04,314.29z M759.05,378.43
				c-3.16,32.68-25.65,76.38-51.04,85.94c-15.07,5.67-39.41,1.39-57.88-10.19c-13.82-8.67-22.02-19.93-23.08-31.68
				c-0.57-6.31-1.35-11.21-2.03-15.53c-2.75-17.46-3.4-21.61,22.96-55.01c6.54-8.29,13.08-14.89,19.49-20.39
				c0.12-0.08,0.22-0.17,0.32-0.27c0.01-0.01,0.02-0.02,0.04-0.04c9.89-8.42,19.46-14.24,28.33-19.62
				c13.64-8.29,25.47-15.47,32.92-29.31c8.04,0.69,50.4,7.46,62.76,32.23C786.75,320.18,761.89,348.98,759.05,378.43z"/>
			<path fill="#FFFFFF" stroke="#21484F" stroke-width="4" stroke-miterlimit="10" d="M791.84,314.56
				c-5.09,5.62-29.95,34.42-32.79,63.87c-3.16,32.68-25.65,76.38-51.04,85.94c-15.07,5.67-39.41,1.39-57.88-10.19
				c-13.82-8.67-22.02-19.93-23.08-31.68c-0.57-6.31-1.35-11.21-2.03-15.53c-2.75-17.46-3.4-21.61,22.96-55.01
				c6.54-8.29,13.08-14.89,19.49-20.39c0.12-0.08,0.22-0.17,0.32-0.27c0.01-0.01,0.02-0.02,0.04-0.04
				c9.89-8.42,19.46-14.24,28.33-19.62c13.64-8.29,25.47-15.47,32.92-29.31C737.12,283.02,779.48,289.79,791.84,314.56z"/>
		</g>
		<g>
			<path fill="#FFFFFF" stroke="#21484F" stroke-width="4" stroke-miterlimit="10" d="M1033.38,340.12
				c-1.29-1.18-2.61-2.36-3.95-3.55c-13.73-12.11-30.22-24.99-49.15-39.77c-5.81-4.54-11.86-9.27-18.15-14.22l-0.48-0.38l-0.62-0.04
				c-0.69-0.05-8.29-0.48-18.34,1.44c-6.25,1.2-13.45,3.31-20.53,6.99c-0.04,0.02-0.07,0.04-0.11,0.06
				c-2.3,1.21-4.59,2.58-6.83,4.15c-0.04,0.02-0.07,0.05-0.11,0.07c-0.16,0.1-0.31,0.21-0.47,0.33c-3.58,2.57-7.03,5.64-10.16,9.3
				h-0.01c-0.95,1.09-1.86,2.23-2.74,3.43l-0.54,0.74l0.2,0.9c0.06,0.26,6.13,26.35,19.47,57.36c11.41,26.52,30.46,61.78,58,84.74
				v0.01c1.57,1.31,3.17,2.57,4.79,3.79c0.72,0.55,1.45,1.09,2.19,1.62l0.2,0.15l0.23,0.09c0.47,0.19,11.72,4.59,26.3,7.16
				c6.85,1.21,13.19,1.82,19.01,1.82c11.02,0,20.18-2.17,27.36-6.48c9.9-5.95,15.72-15.9,17.28-29.59
				C1080.41,393.47,1064.76,368.61,1033.38,340.12z M1072.24,429.79c-1.41,12.38-6.58,21.33-15.36,26.61
				c-23.39,14.06-65.45-1.39-68.92-2.7c-55.53-40.11-79.94-133.94-82.45-144.14c18.01-23.58,49.89-23.57,54.66-23.43
				c6.11,4.8,11.99,9.4,17.65,13.82c20.24,15.8,37.83,29.54,52.12,42.4c0.05,0.05,0.1,0.1,0.15,0.14
				c8.59,7.75,15.98,15.19,22.03,22.58C1069.04,385.73,1075.06,405.09,1072.24,429.79z"/>
			<path fill="#FFFFFF" stroke="#21484F" stroke-width="4" stroke-miterlimit="10" d="M1072.24,429.79
				c-1.41,12.38-6.58,21.33-15.36,26.61c-23.39,14.06-65.45-1.39-68.92-2.7c-55.53-40.11-79.94-133.94-82.45-144.14
				c18.01-23.58,49.89-23.57,54.66-23.43c6.11,4.8,11.99,9.4,17.65,13.82c20.24,15.8,37.83,29.54,52.12,42.4
				c0.05,0.05,0.1,0.1,0.15,0.14c8.59,7.75,15.98,15.19,22.03,22.58C1069.04,385.73,1075.06,405.09,1072.24,429.79z"/>
		</g>
		<g>
			<path fill="#FFFFFF" stroke="#21484F" stroke-width="4" stroke-miterlimit="10" d="M912.81,232.75c-0.71-2.54-1.28-5.01-1.73-7.4
				c-1-0.96-1.84-1.67-2.48-2.09c-5.97-3.94-86.81-17.78-115.23-5.55c-3.7,1.59-7.24,3.88-10.59,6.65c0.01,0.12,0.01,0.24,0.02,0.36
				c0.03,0.35,0.05,0.69,0.06,1c0.01,0.15,0.02,0.3,0.03,0.45c0.02,0.44,0.05,0.83,0.06,1.18c0.03,0.57,0.05,1.01,0.05,1.28
				c0,0.11,0,0.22-0.01,0.32c-0.01,0.07-0.01,0.14-0.03,0.21c-0.02,0.16-0.06,0.29-0.12,0.41c-0.02,0.05-0.05,0.1-0.09,0.14
				c0,0,0,0,0,0.01c3.83-3.59,7.91-6.49,12.2-8.34c26.59-11.44,105.74,1.46,111.44,5.22c1.35,0.89,3.76,3.29,6.7,6.75
				C912.97,233.17,912.87,232.97,912.81,232.75z M942.72,283.95c-0.01-0.12-0.02-0.23-0.03-0.35c-0.81-9.79-5.41-20.72-11.06-30.59
				c-0.74-1.31-1.5-2.59-2.28-3.86c-4.26-6.94-8.88-13.16-12.78-17.81c-2.09-2.49-3.97-4.53-5.49-5.99c-1-0.96-1.84-1.67-2.48-2.09
				c-5.97-3.94-86.81-17.78-115.23-5.55c-3.7,1.59-7.24,3.88-10.59,6.65c-1.12,0.92-2.21,1.89-3.29,2.93
				c-6.53,6.2-12.27,14.12-17.06,22.01c0,0,0,0-0.01,0c-0.84,1.39-1.66,2.79-2.44,4.17c-6.87,12.08-11.41,23.38-13.01,27.59
				c-0.34,0.9-0.55,1.48-0.62,1.67l-0.8,2.23l2.33,0.42c29.77,5.35,39.13,20.98,39.22,21.13l0.87,1.53l1.63-0.67
				c0.79-0.33,1.56-0.66,2.31-1c32.57-14.47,35.79-38.18,35.98-45.55l13.23,0.24l24.19,0.43l5.2,0.09
				c0.82,11.56,7.17,22.72,18.46,32.38c6.16,5.28,12.25,8.81,15.5,10.54h0.01c1.43,0.75,2.31,1.16,2.42,1.21l1.18,0.39l1.22-0.98
				c7.51-9.58,31.9-19.06,32.14-19.15l1.39-0.54L942.72,283.95z M922.05,290.65c-2.32,1.29-4.65,2.69-6.83,4.15
				c-0.04,0.02-0.07,0.05-0.11,0.07c-0.16,0.1-0.31,0.21-0.47,0.33c-2.87,1.96-5.47,4.06-7.43,6.2
				c-6.26-3.21-32.36-18.03-32.78-41.82l-0.04-1.93l-50.77-0.9l0.25,2.25c0,0.07,0.7,7.1-3.26,16.11
				c-6.42,14.59-20.11,23.17-31.03,27.92c-3.09-4.21-13.73-16.06-38.63-21.14c3.14-8.04,14.92-36.2,31.52-51.92
				c0.01-0.01,0.03-0.02,0.05-0.04c0.07-0.07,0.14-0.13,0.21-0.19c0.02-0.01,0.02-0.01,0.02-0.02c3.83-3.59,7.91-6.49,12.2-8.34
				c26.59-11.44,105.74,1.46,111.44,5.22c1.35,0.89,3.76,3.29,6.7,6.75c0.07,0.1,0.15,0.19,0.23,0.28
				c9.24,10.96,23.31,32.04,25.27,49.17c-2.87,1.16-9.62,4.02-16.43,7.79C922.12,290.61,922.09,290.63,922.05,290.65z
				 M912.81,232.75c-0.71-2.54-1.28-5.01-1.73-7.4c-1-0.96-1.84-1.67-2.48-2.09c-5.97-3.94-86.81-17.78-115.23-5.55
				c-3.7,1.59-7.24,3.88-10.59,6.65c0.01,0.12,0.01,0.24,0.02,0.36c0.03,0.35,0.05,0.69,0.06,1c0.01,0.15,0.02,0.3,0.03,0.45
				c0.03,0.44,0.05,0.83,0.06,1.18c0.03,0.57,0.05,1.01,0.05,1.28c0,0.11,0,0.22-0.01,0.32c-0.01,0.07-0.01,0.14-0.03,0.21
				c-0.02,0.16-0.06,0.29-0.12,0.41c-0.02,0.05-0.05,0.1-0.09,0.14c0,0,0,0,0,0.01c3.83-3.59,7.91-6.49,12.2-8.34
				c26.59-11.44,105.74,1.46,111.44,5.22c1.35,0.89,3.76,3.29,6.7,6.75C912.97,233.17,912.87,232.97,912.81,232.75z M912.81,232.75
				c-0.71-2.54-1.28-5.01-1.73-7.4c-1-0.96-1.84-1.67-2.48-2.09c-5.97-3.94-86.81-17.78-115.23-5.55c-3.7,1.59-7.24,3.88-10.59,6.65
				c0.01,0.12,0.01,0.24,0.02,0.36c0.03,0.35,0.05,0.69,0.06,1c0.01,0.15,0.02,0.3,0.03,0.45c0.02,0.44,0.05,0.83,0.06,1.18
				c0.03,0.57,0.05,1.01,0.05,1.28c0,0.11,0,0.22-0.01,0.32c-0.01,0.07-0.01,0.14-0.03,0.21c-0.02,0.16-0.06,0.29-0.12,0.41
				c-0.02,0.05-0.05,0.1-0.09,0.14c0,0,0,0,0,0.01c3.83-3.59,7.91-6.49,12.2-8.34c26.59-11.44,105.74,1.46,111.44,5.22
				c1.35,0.89,3.76,3.29,6.7,6.75C912.97,233.17,912.87,232.97,912.81,232.75z"/>
			<path fill="#FFFFFF" stroke="#21484F" stroke-width="4" stroke-miterlimit="10" d="M938.59,282.8
				c-2.87,1.16-9.62,4.02-16.43,7.79c-0.04,0.02-0.07,0.04-0.11,0.06c-2.3,1.21-4.59,2.58-6.83,4.15c-0.04,0.02-0.07,0.05-0.11,0.07
				c-0.16,0.1-0.31,0.21-0.47,0.33c-2.87,1.96-5.47,4.06-7.43,6.2c-6.26-3.21-32.36-18.03-32.78-41.82l-0.04-1.93l-50.77-0.9
				l0.25,2.25c0,0.07,0.7,7.1-3.26,16.11c-6.42,14.59-20.11,23.17-31.03,27.92c-3.09-4.21-13.73-16.06-38.63-21.14
				c3.14-8.04,14.92-36.2,31.52-51.92c0.01-0.01,0.03-0.02,0.05-0.04c0.09-0.05,0.16-0.11,0.21-0.19c0.02-0.01,0.02-0.01,0.02-0.02
				c3.83-3.59,7.91-6.49,12.2-8.34c26.59-11.44,105.74,1.46,111.44,5.22c1.35,0.89,3.76,3.29,6.7,6.75c0.07,0.1,0.15,0.19,0.23,0.28
				C922.56,244.59,936.63,265.67,938.59,282.8z"/>
			<path fill="#FFFFFF" stroke="#21484F" stroke-width="4" stroke-miterlimit="10" d="M1062.54,1204.84
				c-12.67,0.69-86.7,4.62-173.53,6.51l-23.7-949.86l5.2,0.09c0.82,11.56,7.17,22.72,18.46,32.38c6.16,5.28,12.25,8.81,15.5,10.54
				c-0.95,1.09-1.86,2.23-2.74,3.43l-0.54,0.74l0.2,0.9c0.06,0.26,6.13,26.35,19.47,57.36c11.41,26.52,30.46,61.78,58,84.74v0.01
				c-0.13,0.36-0.15,0.77-0.04,1.17c0.21,0.77,21.16,77.83,41.85,208.72C1039.72,782.07,1062.42,974.03,1062.54,1204.84z"/>
			<path fill="#FFFFFF" stroke="#21484F" stroke-width="4" stroke-miterlimit="10" d="M841.12,261.06l-7.59,908.46l-0.03,42.7
				c-74.61,0.67-151.06-0.8-201.73-7.42c-2.61-1.53-21.78-13.54-39.03-45.17c-17.09-31.31-35.72-88.78-27.47-184.71
				c1.17-13.63,4.82-26.75,10.85-38.98c10.36-21.05,28.98-44.77,58.81-38.33c1.25,0.39,11.9,3.61,24.66,2.69
				c-10.66,9.43-18.02,22.16-21.96,38.01l-0.05,0.25c-0.05,0.39-1.07,9.55,2.15,19.33c3.02,9.21,10.45,20.62,28.7,22.74
				c1.1,0.14,2.09-0.66,2.22-1.75c0.13-1.1-0.66-2.09-1.76-2.22c-12.92-1.5-21.44-8.2-25.32-19.9c-2.79-8.4-2.13-16.56-2.03-17.62
				c5.09-20.32,16.07-35.18,32.64-44.18c23.12-12.55,53.84-11.14,74.03-4.18c10.53,3.63,18.32,5.09,24.59,6.26
				c12.15,2.28,16.33,3.07,20.93,16.09c-0.42,5.04-3.32,46.66,14.45,59.77c11.39,8.41,14.86,30.79,9.7,43.21
				c-3.13,7.54-10.68,15.95-28.85,13.17c-2.23-0.34-4.51-0.67-6.82-1.01c-42-6.18-94.28-13.87-89.51-84.31
				c0.07-1.1-0.76-2.06-1.86-2.13c-1.11-0.1-2.06,0.76-2.13,1.86c-2.23,32.91,7.19,55.73,28.79,69.79
				c18.49,12.03,42.73,15.6,64.13,18.75c2.3,0.34,4.57,0.67,6.8,1.01c2.62,0.4,5.05,0.58,7.3,0.58c16.44,0,23.2-9.8,25.84-16.18
				c6.39-15.38,0.93-39.14-11.02-47.96c-16.71-12.33-12.84-56.18-12.8-56.62l0.04-0.43l-0.14-0.41
				c-5.42-15.6-11.67-16.77-24.12-19.11c-6.13-1.15-13.77-2.58-24.02-6.11c-19.48-6.72-51.4-9.58-77.24,4.45
				c-2.45,1.33-4.79,2.79-7.01,4.36c-0.14-0.03-0.31-0.03-0.51,0c-3.44,0.53-6.88,0.69-10.12,0.62c0.1-0.22,0.16-0.47,0.16-0.73
				c0.59-39.84,13.75-129.05,38.07-257.97c17.27-91.56,34.59-173.58,36.78-183.9c0-0.01,0-0.01,0.01-0.01
				c5.72-6.02,11.16-13.55,16.06-22.34c9.26-16.61,15.74-36.29,17.32-52.66c2.97-30.76,32.29-62.14,32.59-62.45l0.85-0.91
				l-0.43-1.17c-1.03-2.77-2.41-5.42-4.13-7.92c32.57-14.47,35.79-38.18,35.98-45.55L841.12,261.06z"/>
		</g>
		<g>
			<path fill="#FFFFFF" stroke="#21484F" stroke-width="4" stroke-miterlimit="10" d="M759.98,253.47
				c-6.87,12.08-11.41,23.38-13.01,27.59c-10.52-2.34-18.51-2.8-18.95-2.82l-1.3-0.07l-0.59,1.17
				c-6.89,13.6-17.99,20.34-32.04,28.88c-5.62,3.41-11.51,6.99-17.59,11.28c4.78-7.72,10.65-19.28,15.15-34.85
				C698.85,259.76,746.24,254.48,759.98,253.47z"/>
			<path fill="#FFFFFF" stroke="#21484F" stroke-width="4" stroke-miterlimit="10" d="M765.64,251.19c0.03,1.1-0.83,2.02-1.94,2.06
				c-0.09,0-1.44,0.05-3.72,0.22c-13.74,1.01-61.13,6.29-68.33,31.18c-4.5,15.57-10.37,27.13-15.15,34.85
				c-0.01,0.01-0.01,0.01-0.01,0.01c-4.58,7.36-8.17,11.22-8.66,11.75c-0.02,0.02-0.03,0.03-0.04,0.04c-0.1,0.1-0.2,0.19-0.32,0.27
				c-0.33,0.23-0.73,0.35-1.12,0.35c-0.5,0-1-0.19-1.39-0.56c-0.79-0.77-0.82-2.03-0.05-2.83c0.01-0.01,0.07-0.08,0.19-0.2
				c0-0.01,0.01-0.02,0.03-0.03c0.83-0.92,4.03-4.63,8.04-11.12c4.63-7.49,10.32-18.7,14.64-33.64
				c3.9-13.49,17.94-23.37,41.72-29.35c14.94-3.75,28.85-4.69,32.89-4.89c0.01,0,0.01,0,0.01,0c0.66-0.03,1.05-0.05,1.15-0.05
				C764.67,249.23,765.6,250.08,765.64,251.19z"/>
		</g>
		<g>
			<path fill="#FFFFFF" stroke="#21484F" stroke-width="4" stroke-miterlimit="10" d="M1029.43,336.57
				c-13.73-12.11-30.22-24.99-49.15-39.77c-5.81-4.54-11.86-9.27-18.15-14.22l-0.48-0.38l-0.62-0.04
				c-0.69-0.05-8.29-0.48-18.34,1.44c-0.81-9.79-5.41-20.72-11.06-30.59c13.36-0.8,66.34-1.74,80.23,31.85
				c5.33,12.91,9.06,20.57,11.78,26.16C1028.72,321.46,1029.55,323.17,1029.43,336.57z"/>
			<path fill="#FFFFFF" stroke="#21484F" stroke-width="4" stroke-miterlimit="10" d="M1033.38,340.12c0,0.28,0,0.57-0.01,0.87
				c-0.02,1.09-0.91,1.96-2,1.96h-0.03c-0.48-0.01-0.91-0.18-1.25-0.46c-0.05-0.04-0.1-0.09-0.15-0.14
				c-0.36-0.37-0.58-0.87-0.57-1.43c0.03-1.58,0.05-3.02,0.06-4.35c0.12-13.4-0.71-15.11-5.79-25.55
				c-2.72-5.59-6.45-13.25-11.78-26.16c-13.89-33.59-66.87-32.65-80.23-31.85c-1.89,0.11-2.99,0.22-3.07,0.23
				c-1.1,0.12-2.08-0.68-2.2-1.78c-0.12-1.1,0.68-2.08,1.77-2.2c0.1-0.01,0.52-0.05,1.22-0.11c4.29-0.36,19.16-1.27,35.77,1.48
				c25.92,4.29,43.36,15.6,50.43,32.7c5.29,12.8,8.99,20.39,11.69,25.94C1032.87,320.84,1033.67,322.49,1033.38,340.12z"/>
		</g>
		<g>
			<path fill="#FFFFFF" stroke="#21484F" stroke-width="4" stroke-miterlimit="10" d="M911.46,191.24
				c-0.46,1.69-3.95,15.36-0.38,34.11c-1-0.96-1.84-1.67-2.48-2.09c-5.97-3.94-86.81-17.78-115.23-5.55
				c-3.7,1.59-7.24,3.88-10.59,6.65c-0.63-9.44-2.6-30.64-5.98-36.93c-1.82-3.38-15.2-42.66-2.27-74.08
				c9.37-22.77,29.96-35.78,61.19-38.66c22.86-2.1,40.98,3.65,53.82,17.11C919.74,123.42,911.9,187.9,911.46,191.24z"/>
			<path fill="#FFFFFF" stroke="#21484F" stroke-width="4" stroke-miterlimit="10" d="M915.27,234.14
				c-0.18,0.05-0.36,0.07-0.53,0.07c-0.54,0-1.05-0.22-1.42-0.58c-0.08-0.09-0.16-0.18-0.23-0.28c-0.12-0.18-0.22-0.38-0.28-0.6
				c-0.71-2.54-1.28-5.01-1.73-7.4c-3.57-18.75-0.08-32.42,0.38-34.11c0.44-3.34,8.28-67.82-21.92-99.44
				c-12.84-13.46-30.96-19.21-53.82-17.11c-31.23,2.88-51.82,15.89-61.19,38.66c-12.93,31.42,0.45,70.7,2.27,74.08
				c3.38,6.29,5.35,27.49,5.98,36.93c0.01,0.12,0.01,0.24,0.02,0.36c0.02,0.35,0.05,0.68,0.06,1c0.01,0.15,0.02,0.3,0.03,0.45
				c0.03,0.44,0.05,0.83,0.06,1.18c0.03,0.57,0.05,1.01,0.05,1.28c0,0.11,0,0.22-0.01,0.32c-0.01,0.07-0.01,0.14-0.03,0.21
				c-0.02,0.16-0.06,0.29-0.12,0.41c-0.02,0.05-0.05,0.1-0.09,0.14c0,0,0,0,0,0.01s0,0.01-0.02,0.02c-0.07,0.06-0.14,0.12-0.21,0.19
				c-0.02,0.02-0.04,0.03-0.05,0.04c-0.23,0.12-0.54,0.18-0.94,0.18h-0.03c-1.09,0-1.98-0.88-2-1.97c0-0.29-0.01-0.59-0.01-0.89
				c-0.22-12.68-1.86-30.84-5.25-37.79c-2.64-5.39-16.67-45.46-3.41-77.67c9.98-24.26,31.69-38.1,64.52-41.12
				c24.15-2.22,43.36,3.95,57.09,18.33c9.32,9.76,20.99,28.85,23.72,64.37c1.62,21.1-0.73,38.34-0.75,38.51l-0.06,0.28
				c-0.05,0.17-4.8,17.11,1.22,39.14c0.03,0.11,0.06,0.23,0.09,0.34C916.96,232.74,916.34,233.84,915.27,234.14z"/>
		</g>
	</g>
</g>
<g id="Layer_2">
</g>
</svg>
