<svg id="Layer_1" data-name="Layer 1" xmlns="http://www.w3.org/2000/svg" xmlns:xlink="http://www.w3.org/1999/xlink"
     viewBox="0 0 75.22 100.28"><defs><style>.cls-1{fill:#fff;}</style></defs><g id="f89e067a-9d9c-48e1-b53e-43b81444b6cb"><path class="cls-1" d="M32.61,5a4.73,4.73,0,0,1,4-4.89,6,6,0,0,1,3.26.37A4.74,4.74,0,0,1,42.63,5c.49.07,1,.08,1.48.2a4.78,4.78,0,0,1,3.47,3.76A5.72,5.72,0,0,1,47,12.74a4.8,4.8,0,0,1-4.37,2.34V20.9c.62.27,1.28.45,1.9.73a17.3,17.3,0,0,1,9.74,11c1.95,0,3.91,0,5.86,0a5,5,0,0,1,1.21-3.41A5.43,5.43,0,0,1,68.87,29a4.85,4.85,0,0,1,1.35,3.55,4.8,4.8,0,0,1,4.92,3.86,6,6,0,0,1-.47,3.68,4.86,4.86,0,0,1-4.45,2.54,5,5,0,0,1-.68,2.68,4.81,4.81,0,0,1-3.31,2.26,5.64,5.64,0,0,1-4-.75,4.84,4.84,0,0,1-2.12-4.19c-2,0-3.91,0-5.86,0A17.36,17.36,0,0,1,42.66,54.28c-.08,2,0,3.95,0,5.92v30c1.47,0,2.95,0,4.42,0,.93,3,1.89,6,2.83,9.08a5.79,5.79,0,0,1,.25.93q-12.51,0-25,0a4,4,0,0,1,.27-1.07c.94-3,1.86-6,2.81-9,1.44,0,2.89,0,4.34,0l.05-.39q0-17.76,0-35.53c-.68-.28-1.39-.48-2.06-.8A17.36,17.36,0,0,1,21.06,43c-.07-.13-.08-.43-.3-.37-1.89,0-3.78,0-5.67,0a4.87,4.87,0,0,1-2.17,4.25,5.15,5.15,0,0,1-3.18.77,4.75,4.75,0,0,1-4.37-3A7.11,7.11,0,0,1,5,42.64,4.74,4.74,0,0,1,.83,40.57,5,5,0,0,1,0,37.27,4.7,4.7,0,0,1,5,32.61a5.94,5.94,0,0,1,.74-2.74,4.76,4.76,0,0,1,3.48-2.26,6,6,0,0,1,3.22.43,4.8,4.8,0,0,1,2.69,4.49,4.86,4.86,0,0,0,1.08,0h4.76A17.52,17.52,0,0,1,32.59,20.92c0-1.78,0-3.55,0-5.33a1.54,1.54,0,0,0-.06-.52,4.77,4.77,0,0,1-4.88-3.81,5.86,5.86,0,0,1,.51-3.8,4.75,4.75,0,0,1,3.47-2.39C32,5,32.29,5,32.61,5Zm3.61,25.13a7.76,7.76,0,0,0-5.42,4.07A7.58,7.58,0,0,0,30.35,40a7.71,7.71,0,0,0,4.39,4.7,7.5,7.5,0,0,0,4,.47,7.68,7.68,0,0,0,5.83-4.4,7.6,7.6,0,0,0,.17-5.92,7.69,7.69,0,0,0-8.52-4.77Z"/></g></svg>